<?xml version="1.0" encoding="UTF-8"?>
<svg version="1.1" xmlns="http://www.w3.org/2000/svg" width="223" height="233" viewBox="0 0 223 233">
<path fill="#0A0A0A" d="M0 0 C5.85855121 4.05592007 9.58482665 8.92413327 11 16 C11.72700247 23.43779446 10.75217083 29.55842937 6.01953125 35.4765625 C5.29121094 36.32992187 4.56289062 37.18328125 3.8125 38.0625 C1.12142138 41.28783687 0.07237347 42.59865621 -0.6875 46.8125 C0.16714521 50.77494598 1.1254216 53.79002253 4.67749023 56.08276367 C6.78410016 57.16940189 8.91520421 58.18375921 11.0625 59.1875 C25.5555682 66.43174017 33.80206489 77.145826 39.23828125 92.26171875 C41.26860983 99.56048968 41.05172338 106.66137816 40.78515625 114.1484375 C40.70105761 118.94970535 40.83138493 122.11296386 44 126 C46.24308557 127.66390749 46.24308557 127.66390749 49 128 C53.60639284 126.58987974 55.88521402 124.45435804 58.17749023 120.24047852 C59.87211293 115.62440476 59.57094321 110.79415409 59.5 105.9375 C59.51546875 104.87466797 59.5309375 103.81183594 59.546875 102.71679688 C59.516659 96.66982043 59.24861895 92.66311836 55 88 C52.89434876 86.17353005 52.89434876 86.17353005 50.625 84.6875 C43.91079169 79.67673169 39.5147473 73.33111012 38 65 C37.86682488 62.30796003 37.90530547 59.69879422 38 57 C44.7177873 59.35543168 51.56132992 64.1024605 55.25 70.3125 C57.48759385 73.74880484 59.12677837 74.68456624 63 76 C68.69058538 76.73558734 73.15631624 76.30251166 78 73 C82.49769998 68.90209558 83.88365878 65.61766374 84.1953125 59.53125 C83.87996736 55.44437702 82.63314964 52.14877946 80 49 C75.66013419 45.56584532 72.11742278 44.35705946 66.6875 43.5 C60.60815066 42.45421118 55.5037157 40.80013606 50 38 C51.44697485 34.49108598 51.83731676 34.07843656 55.5 32.3125 C64.16080487 29.46210852 72.71737622 29.09311437 81.09375 32.96875 C88.8315427 37.37333969 94.01317184 43.63512934 97 52 C98.18029396 61.64890315 97.56851103 69.82529631 92 78 C91.4225 78.9075 90.845 79.815 90.25 80.75 C87.5069331 83.4930669 84.49219271 85.28095723 81.12109375 87.1796875 C77.4336068 90.34427114 76.21643815 93.87508067 75.73754883 98.57666016 C75.63252349 101.51584392 75.64001026 104.43443543 75.6875 107.375 C75.68427734 108.365 75.68105469 109.355 75.67773438 110.375 C75.75202386 120.61344181 77.72994102 128.1235248 82.52148438 137.11132812 C85.96916031 143.6772842 87.19679082 149.80762406 85.50390625 157.15234375 C83.3506203 163.49054703 79.96405201 168.1872063 73.9375 171.3125 C67.76265871 174.21039581 61.6773173 175.05580102 55.0625 172.9375 C47.95226356 169.91186747 43.55329108 165.82191273 40.50439453 158.65356445 C39.77706642 156.81829673 39.09843927 154.96395706 38.421875 153.109375 C36.58720652 149.09729778 34.73844188 147.65778882 30.6875 146.125 C25.16961808 145.86835433 21.04445153 148.90991816 16.6875 151.9375 C4.08923194 160.59477138 -10.9348042 161.91335677 -25.75 159.3515625 C-32.42960397 157.47292388 -37.8352232 154.48163976 -43.5703125 150.625 C-48.16504905 147.55199292 -51.18486954 145.64868443 -56.875 146.75 C-59.82218921 147.69088277 -59.82218921 147.69088277 -61 149 C-61.57314039 153.46297841 -61.42123508 157.06595701 -59.5625 161.1875 C-56.13101949 164.95375909 -52.3433584 167.38697954 -48 170 C-47.26265625 170.49113281 -46.5253125 170.98226562 -45.765625 171.48828125 C-40.21440723 174.98239882 -35.52192188 176.15761529 -29 175 C-26.70897505 174.10749637 -24.55303878 173.05780282 -22.3515625 171.96484375 C-15.30922759 169.07538076 -8.05399171 169.60881637 -1 172 C1.02813371 172.94163351 3.04072167 173.92239692 5 175 C4 178 4 178 1.6640625 179.31640625 C-3.51724666 181.4408762 -8.31585575 183.19820035 -13.875 184 C-19.09872165 184.82044043 -21.46828535 186.02682102 -25 190 C-27.6599796 194.78796328 -28.59499079 198.54591779 -28 204 C-26.10672504 209.2590971 -23.40216785 211.79008594 -19 215 C-14.20502582 216.59832473 -9.51097855 217.00612612 -4.73828125 215.09375 C-1.25703315 213.08608012 0.59831686 211.85692404 2.34765625 208.125 C4.35666576 204.32545484 6.59394375 202.62842942 10.0625 200.125 C11.12597656 199.34382812 12.18945312 198.56265625 13.28515625 197.7578125 C16 196 16 196 18 196 C18.6010514 205.1660339 16.68613838 213.08016672 10.875 220.375 C5.70061556 225.81760307 -1.50927031 229.44451762 -9.0078125 230.203125 C-17.63807552 230.39420093 -25.45350316 228.42004586 -32.18359375 222.83203125 C-38.55031709 216.4105404 -40.76092886 209.45557715 -41.88793945 200.70947266 C-42.57060495 195.82639234 -43.75883082 192.72837025 -47 189 C-49.82641502 187.00212877 -52.80453887 185.4022945 -55.875 183.8125 C-56.66519531 183.38775391 -57.45539063 182.96300781 -58.26953125 182.52539062 C-60.50327263 181.33046907 -62.74949666 180.16295205 -65 179 C-66.61261719 178.13955078 -66.61261719 178.13955078 -68.2578125 177.26171875 C-73.20564291 174.9851529 -77.85181297 174.85825499 -83.25 174.625 C-91.53047932 174.15467844 -98.92337238 173.07662762 -105 167 C-109.7642047 160.87459396 -111.66760159 154.74417841 -111 147 C-109.63990406 140.932697 -107.5700858 136.36697088 -103 132 C-96.74073949 128.10978231 -91.38328162 126.73631137 -84 127 C-82.66666667 127.33333333 -81.33333333 127.66666667 -80 128 C-74.98834725 128.36448384 -72.02483497 128.10487269 -68 125 C-65.41901715 121.12852572 -65.86320754 118.02861354 -66 113.5625 C-66.23125026 95.82154483 -62.20339043 81.81670898 -49.85546875 68.7265625 C-44.447972 63.4715159 -38.72594861 59.93080557 -32.00195312 56.65014648 C-28.69119736 55.02103761 -27.09536355 54.14304532 -25 51 C-24.75944532 48.94290404 -24.75944532 48.94290404 -24.875 46.8125 C-24.91625 45.554375 -24.9575 44.29625 -25 43 C-29.65506665 40.20696001 -33.65444667 38.80928433 -39 40 C-43.87067386 42.01020875 -48.41584044 44.40847987 -53 47 C-53.77601562 47.42796875 -54.55203125 47.8559375 -55.3515625 48.296875 C-59.22217665 50.70159698 -61.09699598 53.30099623 -62.46875 57.63671875 C-63.08322238 60.3702172 -63.44178501 63.09820211 -63.8125 65.875 C-65.10238085 74.18057426 -68.5898606 80.44220061 -75.25 85.625 C-78.63535912 88 -78.63535912 88 -81 88 C-81.24803979 80.37966658 -80.75822578 74.25675716 -77.8125 67.125 C-76.36383805 61.55322327 -77.12241488 56.86048046 -79.5625 51.6875 C-83.54983975 47.29120233 -87.64529792 45.33638601 -93.5 44.5 C-98.56531092 45.22361585 -102.80801949 46.68521947 -106.39453125 50.47265625 C-109.61337553 55.28386166 -109.87102099 60.38487439 -109 66 C-108.10065291 68.4842951 -107.04369989 70.85415254 -105.95703125 73.26171875 C-104.18405161 78.3346115 -104.16717672 83.66706272 -104 89 C-111.89136688 85.67731921 -116.53579229 81.1891531 -120.875 73.8125 C-124.4032728 64.99181799 -123.78488562 56.26584114 -120.25390625 47.54296875 C-116.62513885 40.18369281 -111.35543568 36.39050559 -104 33 C-95.64162073 30.21387358 -85.95464192 31.19723861 -78 34.625 C-77.030625 35.11226562 -76.06125 35.59953125 -75.0625 36.1015625 C-69.08195108 37.85606027 -64.29026274 35.29523158 -59.08984375 32.4609375 C-57.36593315 31.44315961 -55.64854427 30.41426276 -53.9375 29.375 C-53.07833984 28.87871094 -52.21917969 28.38242187 -51.33398438 27.87109375 C-43.40574266 23.11051469 -38.08933087 17.33212155 -33.5 9.3125 C-29.72207828 3.22397436 -26.21285716 0.22672728 -19.5625 -2.3125 C-12.27594473 -3.71867733 -6.59431442 -3.40660641 0 0 Z M-45.23828125 84.5625 C-51.2626165 92.89772216 -52.89630118 102.93284905 -52 113 C-49.74527341 124.01512927 -44.12107326 133.28003197 -35.0625 140 C-30.60114437 142.86899485 -26.14828863 144.75829773 -21 146 C-20.21625 146.19207031 -19.4325 146.38414062 -18.625 146.58203125 C-8.72635114 148.1581554 1.05399479 145.80312671 9.40625 140.4609375 C18.28014124 133.98299689 24.87943647 124.94614698 27 114 C27.88559768 101.43132528 25.80986595 91.96499352 18 82 C10.82976448 74.13022931 2.7925282 68.78530217 -7.953125 67.54296875 C-23.80242391 66.84309519 -35.03847148 72.69945996 -45.23828125 84.5625 Z " transform="translate(123,3)"/>
<path fill="#0A0A0A" d="M0 0 C4.31584391 4.78242163 5 6.30520475 5 13 C0.38 13 -4.24 13 -9 13 C-9.66 11.68 -10.32 10.36 -11 9 C-13.87939419 8.06419689 -15.25509788 7.62754894 -18 9 C-18.19573621 11.39013982 -18.19573621 11.39013982 -17 14 C-14.24152214 15.75001058 -11.23215037 16.83968398 -8.1875 18 C-1.63939531 20.53076788 2.70975027 22.41950055 6 29 C6.37364646 34.60469691 6.20860998 38.18708503 3 43 C-1.91105913 47.96473191 -5.85303448 49.16119787 -12.75 49.25 C-19.36682638 49.17511822 -23.65380234 48.96441672 -28.74609375 44.453125 C-32.78726569 40.23462681 -33 39.43224047 -33 33 C-28.38 33 -23.76 33 -19 33 C-18.34 34.32 -17.68 35.64 -17 37 C-14.69 37 -12.38 37 -10 37 C-9.4465236 34.92446352 -9 33.15634036 -9 31 C-9.53367187 30.82984375 -10.06734375 30.6596875 -10.6171875 30.484375 C-13.08714412 29.68099811 -15.54440029 28.84625969 -18 28 C-18.88558594 27.69835937 -19.77117187 27.39671875 -20.68359375 27.0859375 C-26.66638435 24.89906307 -30.06411356 22.87177289 -33 17 C-33.41593526 12.48070346 -33.55848834 8.35212967 -31.8125 4.125 C-23.9715025 -5.06789362 -10.18206629 -6.95360624 0 0 Z " transform="translate(124,89)"/>
<path fill="#0A0A0A" d="M0 0 C3.48758929 1.16252976 3.62939771 1.67298825 5.3125 4.75 C7.03467637 7.67980004 8.64042693 9.77011225 11.3125 11.875 C12.199375 12.57625 13.08625 13.2775 14 14 C14 14.66 14 15.32 14 16 C13.11441406 16.32871094 12.22882813 16.65742188 11.31640625 16.99609375 C-7.00338681 23.95776542 -22.67354761 32.97443974 -36.8125 46.625 C-40.34758163 49.81840088 -43.12157491 51.20065529 -47.921875 51.29296875 C-51.58378624 50.77672186 -53.40352934 49.59647066 -56 47 C-58.1115316 42.83107863 -58.1828747 39.7837487 -57.125 35.25 C-55.07355304 32.11249289 -54.62720784 31.53435313 -51.49609375 30.0546875 C-50.78195313 29.71695313 -50.0678125 29.37921875 -49.33203125 29.03125 C-46.11110757 27.60692194 -42.85627792 26.2767138 -39.59130859 24.95703125 C-25.37084766 19.15895555 -13.62966043 11.71001617 -2.171875 1.51953125 C-1.45515625 1.01808594 -0.7384375 0.51664063 0 0 Z " transform="translate(158,163)"/>
<path fill="#0A0A0A" d="M0 0 C3.26924692 1.4137284 5.91388122 3.40456671 8.7175293 5.57910156 C21.70089046 15.5781967 35.72389377 22.83290926 51.41479492 27.58105469 C56.44906904 29.16297594 59.58813075 30.75188829 63 35 C64.35484831 38.8951889 64.08548587 40.71979632 62.875 44.6875 C60.8074441 48.34018208 59.94501573 49.62782061 56 51 C48.9061866 51.26482412 44.88577525 49.07583473 39.75 44.4375 C38.44719549 43.33322588 37.13983288 42.23430839 35.828125 41.140625 C35.18423828 40.60244141 34.54035156 40.06425781 33.87695312 39.50976562 C22.28881962 30.1886135 7.8007929 24.22806508 -6 19 C-5.70222656 18.25621094 -5.40445313 17.51242188 -5.09765625 16.74609375 C-4.73542969 15.83988281 -4.37320313 14.93367188 -4 14 C-3.59587891 12.99646484 -3.59587891 12.99646484 -3.18359375 11.97265625 C-1.6280068 7.99002789 -0.53407182 4.27257456 0 0 Z " transform="translate(138,23)"/>
<path fill="#0A0A0A" d="M0 0 C2.69163542 2.13308496 3.86989675 3.24584219 4.4609375 6.671875 C4.2892598 12.82105796 3.82921997 18.84207046 3 24.9375 C0.86895165 40.6068634 2.75438949 55.48303372 5 71 C3.96552734 71.05607422 3.96552734 71.05607422 2.91015625 71.11328125 C-3.48646465 71.56078148 -9.03070248 72.65649801 -15 75 C-14.85479535 73.3749437 -14.70879131 71.74995883 -14.5625 70.125 C-14.42714844 68.60326172 -14.42714844 68.60326172 -14.2890625 67.05078125 C-14.11688538 65.23361459 -13.92969612 63.41761783 -13.7109375 61.60546875 C-11.82786401 45.81455245 -13.42928172 30.64655366 -16.58203125 15.13671875 C-17.40857726 10.91129197 -17.49775734 7.28831312 -15.9375 3.25 C-11.2705045 -2.16973671 -6.36471697 -2.76204699 0 0 Z " transform="translate(36,55)"/>
</svg>
